<?xml version="1.0" encoding="UTF-8"?>
<svg width="505px" height="429px" viewBox="0 0 505 429" version="1.1" xmlns="http://www.w3.org/2000/svg" xmlns:xlink="http://www.w3.org/1999/xlink">
    <!-- Generator: Sketch 61 (89581) - https://sketch.com -->
    <title>flaticon1578460831-svg</title>
    <desc>Created with Sketch.</desc>
    <g id="Page-1" stroke="none" stroke-width="1" fill="none" fill-rule="evenodd">
        <g id="flaticon1578460831-svg" fill="#FFFFFF" fill-rule="nonzero">
            <path d="M6.996094,33.648438 C76.851562,45.398438 113.539062,57.71875 133.683594,76.453125 C139.945312,82.511719 145.433594,89.316406 150.027344,96.714844 C160.621094,112.730469 161.265625,134.863281 161.902344,156.308594 C162.019531,160.378906 162.148438,164.367188 162.324219,168.253906 C165.058594,221.132812 189.804688,266.859375 228.53125,290.488281 C258.855469,307.949219 290.390625,323.226562 322.890625,336.207031 C325.199219,337.191406 327.015625,339.0625 327.925781,341.402344 C328.890625,343.761719 328.867188,346.410156 327.859375,348.753906 L309.074219,391.324219 C305.5,399.445312 306.253906,408.820312 311.082031,416.261719 C315.910156,423.707031 324.164062,428.214844 333.039062,428.257957 L361.996094,428.257957 C369.035156,428.28125 375.785156,425.453125 380.703125,420.417969 C385.621094,415.382812 388.289062,408.570312 388.097656,401.53125 C387.675781,366.335938 384.617188,331.21875 378.949219,296.480469 C373.839844,277.539062 367.011719,259.105469 358.546875,241.410156 C374.121094,232.957031 388.917969,223.144531 402.769531,212.09375 C428.976562,190.417969 450.289062,163.433594 465.300781,132.917969 C465.75,132.285156 466.105469,131.59375 466.359375,130.859375 C483.664062,96.039062 496.363281,59.113281 504.128906,21.015625 C505.507812,14.390625 502.886719,7.574219 497.429688,3.578125 C491.96875,-0.417969 484.679688,-0.855469 478.78125,2.457031 L291.992188,108.375 C272.589844,73.121094 241.945312,20.386719 226.75,10.261719 C198.324219,-8.832031 161.054688,11.210938 151.511719,16.976562 L8.378906,16.976562 C4.019531,16.984375 0.390625,20.332031 0.0273438,24.675781 C-0.332031,29.023438 2.695312,32.921875 6.996094,33.648438 Z M362.480469,299.777344 C367.960938,333.566406 370.914062,367.714844 371.3125,401.945312 C371.390625,404.457031 370.441406,406.894531 368.683594,408.691406 C366.925781,410.492188 364.511719,411.496094 361.996094,411.469294 L333.039062,411.469294 C329.859375,411.484375 326.898438,409.863281 325.199219,407.179688 C323.390625,404.480469 323.101562,401.039062 324.433594,398.074219 L343.253906,355.476562 C346.042969,349.042969 346.15625,341.761719 343.566406,335.242188 C340.980469,328.722656 335.898438,323.503906 329.453125,320.738281 C297.710938,308.066406 266.902344,293.164062 237.269531,276.132812 C203.285156,255.394531 181.535156,214.746094 179.09375,167.40625 C178.917969,163.644531 178.800781,159.757812 178.691406,155.796875 C178.070312,134.898438 177.246094,111.496094 166.761719,92.300781 C192.34375,105.5625 216.863281,120.773438 240.113281,137.792969 L213.917969,152.648438 C201.660156,159.695312 197.113281,175.132812 203.585938,187.699219 C224.738281,227.929688 249.75,250.652344 279.964844,257.105469 C285.816406,258.347656 291.78125,258.972656 297.761719,258.960938 C313.496094,258.59375 329,255.085938 343.363281,248.636719 C351.195312,265.101562 357.59375,282.210938 362.480469,299.777344 L362.480469,299.777344 Z M482.917969,9.761719 L487.703125,17.675781 C480.476562,53.144531 468.84375,87.574219 453.070312,120.160156 C431.367188,123.433594 409.378906,124.472656 387.460938,123.257812 C382.824219,123.003906 378.863281,126.5625 378.613281,131.195312 C378.363281,135.832031 381.917969,139.792969 386.554688,140.042969 C393.046875,140.390625 399.480469,140.5625 405.859375,140.5625 C418.328125,140.554688 430.785156,139.855469 443.175781,138.464844 C435.78125,151.210938 427.242188,163.261719 417.667969,174.464844 C379.445312,186.644531 349.75,188.785156 331.753906,180.515625 C327.539062,178.582031 322.558594,180.433594 320.625,184.644531 C318.691406,188.859375 320.539062,193.84375 324.753906,195.777344 C335.535156,200.375 347.179688,202.59375 358.898438,202.28125 C370.425781,202.097656 381.90625,200.753906 393.167969,198.277344 C392.90625,198.488281 392.671875,198.722656 392.414062,198.929688 C377.546875,210.921875 361.445312,221.296875 344.386719,229.886719 C344.320312,229.886719 344.257812,229.886719 344.191406,229.886719 C344.125,229.886719 344.082031,229.980469 344.015625,230.011719 C325.585938,240.230469 304.269531,243.984375 283.457031,240.671875 C258.402344,235.308594 237.140625,215.425781 218.441406,179.878906 C216.117188,175.339844 217.769531,169.773438 222.195312,167.238281 L487.058594,17.054688 L482.917969,9.761719 Z M153.921875,33.765625 C155.578125,33.765625 157.199219,33.273438 158.578125,32.355469 C158.941406,32.113281 194.824219,9.039062 217.417969,24.214844 C224.207031,28.746094 243.933594,55.804688 277.378906,116.660156 L256.136719,128.710938 C221.480469,102.414062 183.792969,80.371094 143.882812,63.058594 C126.8125,49.152344 106.90625,39.152344 85.558594,33.765625 L153.921875,33.765625 Z" id="Shape"></path>
            <path d="M202.351562,50.550781 C202.351562,55.1875 198.59375,58.945312 193.957031,58.945312 C189.324219,58.945312 185.566406,55.1875 185.566406,50.550781 C185.566406,45.917969 189.324219,42.160156 193.957031,42.160156 C198.59375,42.160156 202.351562,45.917969 202.351562,50.550781 Z" id="Path"></path>
        </g>
    </g>
</svg>